<?xml version="1.0" standalone="no"?>
<!DOCTYPE svg PUBLIC "-//W3C//DTD SVG 20010904//EN"
 "http://www.w3.org/TR/2001/REC-SVG-20010904/DTD/svg10.dtd">
<svg version="1.0" xmlns="http://www.w3.org/2000/svg"
 width="512.000000pt" height="512.000000pt" viewBox="0 0 512.000000 512.000000"
 preserveAspectRatio="xMidYMid meet">
<metadata>
Created by potrace 1.14, written by Peter Selinger 2001-2017
</metadata>
<g transform="translate(0.000000,512.000000) scale(0.100000,-0.100000)"
fill="#000000" stroke="none">
<path d="M2368 4925 c-1 -2 -28 -6 -58 -9 -107 -11 -146 -18 -258 -42 -445
-98 -836 -311 -1161 -633 -132 -132 -139 -144 -115 -192 12 -23 11 -29 -2 -40
-8 -7 -42 -50 -75 -95 -57 -79 -62 -83 -96 -82 -46 2 -60 -15 -141 -170 -86
-166 -182 -419 -206 -546 -2 -12 -9 -41 -15 -66 -33 -145 -45 -278 -46 -490 0
-162 7 -278 20 -345 3 -11 7 -37 10 -57 2 -20 16 -85 30 -144 171 -722 672
-1323 1355 -1624 180 -79 452 -156 625 -176 22 -3 51 -7 65 -10 57 -13 419
-11 525 2 306 38 597 128 853 265 68 37 253 152 285 179 7 5 39 31 72 57 350
277 621 662 770 1095 14 43 28 86 30 95 3 10 16 62 29 117 24 93 38 175 54
311 9 80 9 392 -1 482 -19 182 -72 409 -132 564 -20 52 -39 103 -42 114 -11
39 -140 281 -187 353 -27 40 -47 74 -45 76 2 2 45 24 95 49 111 56 146 84 173
142 35 75 23 159 -31 221 -52 59 -79 68 -208 71 -93 1 -126 6 -175 25 -49 18
-79 23 -165 23 -58 0 -119 -5 -136 -12 -26 -9 -36 -8 -56 5 -282 191 -391 252
-580 326 -181 71 -389 124 -593 152 -52 7 -461 15 -467 9z"/>
</g>
</svg>
